<svg xmlns="http://www.w3.org/2000/svg" width="256" height="256"><path d="M77,289L8,298L102,288Z" fill="#656647" stroke="#656647" stroke-width="1.51"/><path d="M94,-46L160,-41L198,-45Z" fill="#864746" stroke="#864746" stroke-width="1.51"/><path d="M174,289L102,288L209,295Z" fill="#657e67" stroke="#657e67" stroke-width="1.51"/><path d="M209,295L102,288L241,301Z" fill="#689280" stroke="#689280" stroke-width="1.51"/><path d="M102,288L8,298L241,301Z" fill="#566648" stroke="#566648" stroke-width="1.51"/><path d="M94,-46L198,-45L252,-46Z" fill="#966064" stroke="#966064" stroke-width="1.51"/><path d="M51,-47L94,-46L252,-46Z" fill="#7c3936" stroke="#7c3936" stroke-width="1.51"/><path d="M257,207L258,243L284,203Z" fill="#9e8555" stroke="#9e8555" stroke-width="1.51"/><path d="M282,154L260,191L284,201Z" fill="#7a8874" stroke="#7a8874" stroke-width="1.51"/><path d="M252,-46L255,-42L289,-24Z" fill="#b7653d" stroke="#b7653d" stroke-width="1.51"/><path d="M261,41L254,55L292,74Z" fill="#7a5f3c" stroke="#7a5f3c" stroke-width="1.51"/><path d="M267,91L288,104L292,74Z" fill="#606141" stroke="#606141" stroke-width="1.51"/><path d="M261,41L292,74L292,33Z" fill="#7c6643" stroke="#7c6643" stroke-width="1.51"/><path d="M292,74L288,104L295,100Z" fill="#596446" stroke="#596446" stroke-width="1.51"/><path d="M284,203L258,243L296,241Z" fill="#9f8a50" stroke="#9f8a50" stroke-width="1.51"/><path d="M258,243L278,272L296,241Z" fill="#a88b43" stroke="#a88b43" stroke-width="1.51"/><path d="M278,272L290,283L296,241Z" fill="#999551" stroke="#999551" stroke-width="1.51"/><path d="M284,201L284,203L296,241Z" fill="#8e8f63" stroke="#8e8f63" stroke-width="1.51"/><path d="M271,16L292,33L296,3Z" fill="#a66f48" stroke="#a66f48" stroke-width="1.51"/><path d="M289,-24L289,-12L296,3Z" fill="#ab734a" stroke="#ab734a" stroke-width="1.51"/><path d="M292,74L295,100L296,3Z" fill="#676848" stroke="#676848" stroke-width="1.51"/><path d="M292,33L292,74L296,3Z" fill="#876e49" stroke="#876e49" stroke-width="1.51"/><path d="M268,140L282,154L297,133Z" fill="#656c4f" stroke="#656c4f" stroke-width="1.51"/><path d="M288,104L275,107L297,133Z" fill="#5d6243" stroke="#5d6243" stroke-width="1.51"/><path d="M275,107L268,140L297,133Z" fill="#616040" stroke="#616040" stroke-width="1.51"/><path d="M295,100L288,104L297,133Z" fill="#586547" stroke="#586547" stroke-width="1.51"/><path d="M284,201L296,241L297,133Z" fill="#72927c" stroke="#72927c" stroke-width="1.51"/><path d="M282,154L284,201L297,133Z" fill="#697e66" stroke="#697e66" stroke-width="1.51"/><path d="M296,3L295,100L297,133Z" fill="#566648" stroke="#566648" stroke-width="1.51"/><path d="M263,156L260,191L282,154Z" fill="#7a7961" stroke="#7a7961" stroke-width="1.51"/><path d="M289,-12L267,-2L296,3Z" fill="#af6f47" stroke="#af6f47" stroke-width="1.51"/><path d="M267,-2L271,16L296,3Z" fill="#b26c44" stroke="#b26c44" stroke-width="1.51"/><path d="M254,55L267,91L292,74Z" fill="#675c3c" stroke="#675c3c" stroke-width="1.51"/><path d="M271,16L261,41L292,33Z" fill="#9a6741" stroke="#9a6741" stroke-width="1.51"/><path d="M267,91L275,107L288,104Z" fill="#645e3e" stroke="#645e3e" stroke-width="1.51"/><path d="M267,-2L289,-12L289,-24Z" fill="#b06e46" stroke="#b06e46" stroke-width="1.51"/><path d="M278,272L269,275L290,283Z" fill="#989652" stroke="#989652" stroke-width="1.51"/><path d="M269,275L264,295L290,283Z" fill="#969754" stroke="#969754" stroke-width="1.51"/><path d="M255,-42L267,-2L289,-24Z" fill="#b56840" stroke="#b56840" stroke-width="1.51"/><path d="M258,243L269,275L278,272Z" fill="#a78c44" stroke="#a78c44" stroke-width="1.51"/><path d="M257,207L284,203L284,201Z" fill="#8d8a67" stroke="#8d8a67" stroke-width="1.51"/><path d="M260,191L257,207L284,201Z" fill="#8f8767" stroke="#8f8767" stroke-width="1.51"/><path d="M247,175L260,191L263,156Z" fill="#857a62" stroke="#857a62" stroke-width="1.51"/><path d="M268,140L263,156L282,154Z" fill="#716d51" stroke="#716d51" stroke-width="1.51"/><path d="M239,104L268,140L275,107Z" fill="#6d5837" stroke="#6d5837" stroke-width="1.51"/><path d="M267,91L239,104L275,107Z" fill="#6d5837" stroke="#6d5837" stroke-width="1.51"/><path d="M257,207L237,219L258,243Z" fill="#ab7d48" stroke="#ab7d48" stroke-width="1.51"/><path d="M254,55L236,93L267,91Z" fill="#715533" stroke="#715533" stroke-width="1.51"/><path d="M255,-42L242,2L267,-2Z" fill="#bc6038" stroke="#bc6038" stroke-width="1.51"/><path d="M239,104L232,144L268,140Z" fill="#755331" stroke="#755331" stroke-width="1.51"/><path d="M258,243L235,251L269,275Z" fill="#b28239" stroke="#b28239" stroke-width="1.51"/><path d="M235,251L230,263L269,275Z" fill="#b38137" stroke="#b38137" stroke-width="1.51"/><path d="M237,18L261,41L271,16Z" fill="#a95e38" stroke="#a95e38" stroke-width="1.51"/><path d="M267,-2L242,2L271,16Z" fill="#ba633b" stroke="#ba633b" stroke-width="1.51"/><path d="M242,2L237,18L271,16Z" fill="#bd5c35" stroke="#bd5c35" stroke-width="1.51"/><path d="M147,284L102,288L174,289Z" fill="#626d50" stroke="#626d50" stroke-width="1.51"/><path d="M241,301L264,295L269,275Z" fill="#9d934e" stroke="#9d934e" stroke-width="1.51"/><path d="M230,263L241,301L269,275Z" fill="#aa8a41" stroke="#aa8a41" stroke-width="1.51"/><path d="M232,144L263,156L268,140Z" fill="#7a6345" stroke="#7a6345" stroke-width="1.51"/><path d="M236,93L239,104L267,91Z" fill="#745230" stroke="#745230" stroke-width="1.51"/><path d="M241,53L236,93L254,55Z" fill="#785230" stroke="#785230" stroke-width="1.51"/><path d="M212,-21L242,2L255,-42Z" fill="#bb5b3b" stroke="#bb5b3b" stroke-width="1.51"/><path d="M232,144L247,175L263,156Z" fill="#836a4d" stroke="#836a4d" stroke-width="1.51"/><path d="M238,197L257,207L260,191Z" fill="#988160" stroke="#988160" stroke-width="1.51"/><path d="M232,48L241,53L261,41Z" fill="#915530" stroke="#915530" stroke-width="1.51"/><path d="M237,18L232,48L261,41Z" fill="#a05733" stroke="#a05733" stroke-width="1.51"/><path d="M241,53L254,55L261,41Z" fill="#8b5834" stroke="#8b5834" stroke-width="1.51"/><path d="M247,175L238,197L260,191Z" fill="#918069" stroke="#918069" stroke-width="1.51"/><path d="M252,-46L212,-21L255,-42Z" fill="#bd5a38" stroke="#bd5a38" stroke-width="1.51"/><path d="M237,219L235,251L258,243Z" fill="#b77936" stroke="#b77936" stroke-width="1.51"/><path d="M238,197L237,219L257,207Z" fill="#a37c54" stroke="#a37c54" stroke-width="1.51"/><path d="M232,144L223,166L247,175Z" fill="#7d6c59" stroke="#7d6c59" stroke-width="1.51"/><path d="M209,-28L212,-21L252,-46Z" fill="#b45e46" stroke="#b45e46" stroke-width="1.51"/><path d="M224,40L232,48L237,18Z" fill="#99593e" stroke="#99593e" stroke-width="1.51"/><path d="M213,116L232,144L239,104Z" fill="#69533e" stroke="#69533e" stroke-width="1.51"/><path d="M198,-45L209,-28L252,-46Z" fill="#b15e4b" stroke="#b15e4b" stroke-width="1.51"/><path d="M216,239L235,251L237,219Z" fill="#ad7b46" stroke="#ad7b46" stroke-width="1.51"/><path d="M230,263L209,295L241,301Z" fill="#998d57" stroke="#998d57" stroke-width="1.51"/><path d="M209,57L236,93L241,53Z" fill="#6d533e" stroke="#6d533e" stroke-width="1.51"/><path d="M232,48L209,57L241,53Z" fill="#7f5640" stroke="#7f5640" stroke-width="1.51"/><path d="M223,166L238,197L247,175Z" fill="#877a69" stroke="#877a69" stroke-width="1.51"/><path d="M218,12L237,18L242,2Z" fill="#b95c3f" stroke="#b95c3f" stroke-width="1.51"/><path d="M212,-21L218,12L242,2Z" fill="#b45e47" stroke="#b45e47" stroke-width="1.51"/><path d="M209,57L207,98L236,93Z" fill="#615447" stroke="#615447" stroke-width="1.51"/><path d="M223,166L203,185L238,197Z" fill="#7a7e7a" stroke="#7a7e7a" stroke-width="1.51"/><path d="M213,116L208,137L232,144Z" fill="#63574c" stroke="#63574c" stroke-width="1.51"/><path d="M205,220L237,219L238,197Z" fill="#997e61" stroke="#997e61" stroke-width="1.51"/><path d="M236,93L207,98L239,104Z" fill="#69533e" stroke="#69533e" stroke-width="1.51"/><path d="M207,98L213,116L239,104Z" fill="#635445" stroke="#635445" stroke-width="1.51"/><path d="M218,12L224,40L237,18Z" fill="#a65b44" stroke="#a65b44" stroke-width="1.51"/><path d="M203,185L205,220L238,197Z" fill="#848076" stroke="#848076" stroke-width="1.51"/><path d="M200,274L209,295L230,263Z" fill="#948a60" stroke="#948a60" stroke-width="1.51"/><path d="M206,264L200,274L230,263Z" fill="#99865b" stroke="#99865b" stroke-width="1.51"/><path d="M205,220L216,239L237,219Z" fill="#9e7d5b" stroke="#9e7d5b" stroke-width="1.51"/><path d="M216,239L230,263L235,251Z" fill="#ae7d43" stroke="#ae7d43" stroke-width="1.51"/><path d="M216,239L206,264L230,263Z" fill="#a4804f" stroke="#a4804f" stroke-width="1.51"/><path d="M208,137L223,166L232,144Z" fill="#6d6358" stroke="#6d6358" stroke-width="1.51"/><path d="M224,40L209,57L232,48Z" fill="#815845" stroke="#815845" stroke-width="1.51"/><path d="M212,-21L201,-15L218,12Z" fill="#ab6053" stroke="#ab6053" stroke-width="1.51"/><path d="M203,185L192,206L205,220Z" fill="#778282" stroke="#778282" stroke-width="1.51"/><path d="M200,245L206,264L216,239Z" fill="#a17f56" stroke="#a17f56" stroke-width="1.51"/><path d="M208,137L178,156L223,166Z" fill="#5c686c" stroke="#5c686c" stroke-width="1.51"/><path d="M218,12L197,32L224,40Z" fill="#965d50" stroke="#965d50" stroke-width="1.51"/><path d="M197,32L209,57L224,40Z" fill="#805b50" stroke="#805b50" stroke-width="1.51"/><path d="M182,83L207,98L209,57Z" fill="#505657" stroke="#505657" stroke-width="1.51"/><path d="M178,156L203,185L223,166Z" fill="#5e757e" stroke="#5e757e" stroke-width="1.51"/><path d="M184,65L182,83L209,57Z" fill="#49575d" stroke="#49575d" stroke-width="1.51"/><path d="M198,131L208,137L213,116Z" fill="#575551" stroke="#575551" stroke-width="1.51"/><path d="M201,-15L189,18L218,12Z" fill="#a5615b" stroke="#a5615b" stroke-width="1.51"/><path d="M189,18L197,32L218,12Z" fill="#98605a" stroke="#98605a" stroke-width="1.51"/><path d="M205,220L200,245L216,239Z" fill="#9b7d5e" stroke="#9b7d5e" stroke-width="1.51"/><path d="M207,98L192,110L213,116Z" fill="#555553" stroke="#555553" stroke-width="1.51"/><path d="M192,110L198,131L213,116Z" fill="#525556" stroke="#525556" stroke-width="1.51"/><path d="M198,131L178,156L208,137Z" fill="#4e6068" stroke="#4e6068" stroke-width="1.51"/><path d="M209,-28L201,-15L212,-21Z" fill="#a96056" stroke="#a96056" stroke-width="1.51"/><path d="M175,-3L189,18L201,-15Z" fill="#9b6467" stroke="#9b6467" stroke-width="1.51"/><path d="M200,274L181,281L209,295Z" fill="#808e73" stroke="#808e73" stroke-width="1.51"/><path d="M181,281L174,289L209,295Z" fill="#72917d" stroke="#72917d" stroke-width="1.51"/><path d="M197,32L184,65L209,57Z" fill="#695a5c" stroke="#695a5c" stroke-width="1.51"/><path d="M198,-45L201,-15L209,-28Z" fill="#a5615b" stroke="#a5615b" stroke-width="1.51"/><path d="M182,83L192,110L207,98Z" fill="#4a565c" stroke="#4a565c" stroke-width="1.51"/><path d="M169,271L200,274L200,245Z" fill="#88866e" stroke="#88866e" stroke-width="1.51"/><path d="M178,156L173,188L203,185Z" fill="#457a91" stroke="#457a91" stroke-width="1.51"/><path d="M168,216L200,245L205,220Z" fill="#868074" stroke="#868074" stroke-width="1.51"/><path d="M200,245L200,274L206,264Z" fill="#958462" stroke="#958462" stroke-width="1.51"/><path d="M181,200L192,206L203,185Z" fill="#64838e" stroke="#64838e" stroke-width="1.51"/><path d="M192,206L168,216L205,220Z" fill="#758283" stroke="#758283" stroke-width="1.51"/><path d="M169,271L181,281L200,274Z" fill="#7a8975" stroke="#7a8975" stroke-width="1.51"/><path d="M198,-45L160,-41L201,-15Z" fill="#996469" stroke="#996469" stroke-width="1.51"/><path d="M160,-41L175,-3L201,-15Z" fill="#955e62" stroke="#955e62" stroke-width="1.51"/><path d="M173,188L181,200L203,185Z" fill="#4f8399" stroke="#4f8399" stroke-width="1.51"/><path d="M158,49L184,65L197,32Z" fill="#61575e" stroke="#61575e" stroke-width="1.51"/><path d="M154,229L169,271L200,245Z" fill="#8a775e" stroke="#8a775e" stroke-width="1.51"/><path d="M168,216L154,229L200,245Z" fill="#807669" stroke="#807669" stroke-width="1.51"/><path d="M182,83L170,105L192,110Z" fill="#3f535d" stroke="#3f535d" stroke-width="1.51"/><path d="M161,149L178,156L198,131Z" fill="#425e6c" stroke="#425e6c" stroke-width="1.51"/><path d="M192,110L170,105L198,131Z" fill="#415762" stroke="#415762" stroke-width="1.51"/><path d="M170,105L161,149L198,131Z" fill="#3e4f59" stroke="#3e4f59" stroke-width="1.51"/><path d="M94,-46L113,-37L160,-41Z" fill="#793532" stroke="#793532" stroke-width="1.51"/><path d="M189,18L158,49L197,32Z" fill="#785c61" stroke="#785c61" stroke-width="1.51"/><path d="M147,128L161,149L170,105Z" fill="#3a4348" stroke="#3a4348" stroke-width="1.51"/><path d="M161,176L173,188L178,156Z" fill="#446d80" stroke="#446d80" stroke-width="1.51"/><path d="M181,200L168,216L192,206Z" fill="#697d84" stroke="#697d84" stroke-width="1.51"/><path d="M160,-41L149,-23L175,-3Z" fill="#8c5050" stroke="#8c5050" stroke-width="1.51"/><path d="M158,49L164,64L184,65Z" fill="#4d4c52" stroke="#4d4c52" stroke-width="1.51"/><path d="M175,-3L165,5L189,18Z" fill="#945c5f" stroke="#945c5f" stroke-width="1.51"/><path d="M165,5L158,49L189,18Z" fill="#805558" stroke="#805558" stroke-width="1.51"/><path d="M144,19L158,49L165,5Z" fill="#78494a" stroke="#78494a" stroke-width="1.51"/><path d="M163,100L170,105L182,83Z" fill="#3d4c54" stroke="#3d4c54" stroke-width="1.51"/><path d="M164,64L182,83L184,65Z" fill="#3e5059" stroke="#3e5059" stroke-width="1.51"/><path d="M154,229L142,264L169,271Z" fill="#7d6a4e" stroke="#7d6a4e" stroke-width="1.51"/><path d="M164,64L163,100L182,83Z" fill="#3d4b52" stroke="#3d4b52" stroke-width="1.51"/><path d="M169,271L174,289L181,281Z" fill="#73846e" stroke="#73846e" stroke-width="1.51"/><path d="M173,188L168,216L181,200Z" fill="#5f7883" stroke="#5f7883" stroke-width="1.51"/><path d="M46,288L8,298L77,289Z" fill="#7f6c48" stroke="#7f6c48" stroke-width="1.51"/><path d="M117,282L102,288L147,284Z" fill="#5e6243" stroke="#5e6243" stroke-width="1.51"/><path d="M137,248L142,264L154,229Z" fill="#7d5f3f" stroke="#7d5f3f" stroke-width="1.51"/><path d="M149,94L163,100L164,64Z" fill="#3a4248" stroke="#3a4248" stroke-width="1.51"/><path d="M161,149L161,176L178,156Z" fill="#42606e" stroke="#42606e" stroke-width="1.51"/><path d="M139,197L168,216L173,188Z" fill="#5a6e76" stroke="#5a6e76" stroke-width="1.51"/><path d="M169,271L147,284L174,289Z" fill="#6e7c63" stroke="#6e7c63" stroke-width="1.51"/><path d="M149,-23L165,5L175,-3Z" fill="#8d5152" stroke="#8d5152" stroke-width="1.51"/><path d="M144,19L140,37L158,49Z" fill="#664241" stroke="#664241" stroke-width="1.51"/><path d="M163,100L147,128L170,105Z" fill="#3a4349" stroke="#3a4349" stroke-width="1.51"/><path d="M161,176L139,197L173,188Z" fill="#456d7f" stroke="#456d7f" stroke-width="1.51"/><path d="M149,-23L139,-8L165,5Z" fill="#864847" stroke="#864847" stroke-width="1.51"/><path d="M140,163L161,176L161,149Z" fill="#415864" stroke="#415864" stroke-width="1.51"/><path d="M137,108L147,128L163,100Z" fill="#383c3f" stroke="#383c3f" stroke-width="1.51"/><path d="M139,197L137,219L168,216Z" fill="#626460" stroke="#626460" stroke-width="1.51"/><path d="M142,264L147,284L169,271Z" fill="#707054" stroke="#707054" stroke-width="1.51"/><path d="M142,60L149,94L164,64Z" fill="#383e41" stroke="#383e41" stroke-width="1.51"/><path d="M137,219L154,229L168,216Z" fill="#6f665c" stroke="#6f665c" stroke-width="1.51"/><path d="M149,94L137,108L163,100Z" fill="#383c40" stroke="#383c40" stroke-width="1.51"/><path d="M139,-8L144,19L165,5Z" fill="#854645" stroke="#854645" stroke-width="1.51"/><path d="M158,49L142,60L164,64Z" fill="#4a4345" stroke="#4a4345" stroke-width="1.51"/><path d="M140,163L139,197L161,176Z" fill="#425f6d" stroke="#425f6d" stroke-width="1.51"/><path d="M147,128L140,163L161,149Z" fill="#3d4950" stroke="#3d4950" stroke-width="1.51"/><path d="M113,-37L149,-23L160,-41Z" fill="#81403d" stroke="#81403d" stroke-width="1.51"/><path d="M140,37L142,60L158,49Z" fill="#543e3f" stroke="#543e3f" stroke-width="1.51"/><path d="M142,60L119,91L149,94Z" fill="#343333" stroke="#343333" stroke-width="1.51"/><path d="M137,219L137,248L154,229Z" fill="#745d48" stroke="#745d48" stroke-width="1.51"/><path d="M119,192L139,197L140,163Z" fill="#405864" stroke="#405864" stroke-width="1.51"/><path d="M112,135L140,163L147,128Z" fill="#373a3d" stroke="#373a3d" stroke-width="1.51"/><path d="M119,91L137,108L149,94Z" fill="#333232" stroke="#333232" stroke-width="1.51"/><path d="M123,-15L139,-8L149,-23Z" fill="#7e3c3a" stroke="#7e3c3a" stroke-width="1.51"/><path d="M113,-37L123,-15L149,-23Z" fill="#793532" stroke="#793532" stroke-width="1.51"/><path d="M117,232L137,248L137,219Z" fill="#6e543c" stroke="#6e543c" stroke-width="1.51"/><path d="M139,-8L112,18L144,19Z" fill="#7b3835" stroke="#7b3835" stroke-width="1.51"/><path d="M142,264L119,275L147,284Z" fill="#696445" stroke="#696445" stroke-width="1.51"/><path d="M119,275L117,282L147,284Z" fill="#616040" stroke="#616040" stroke-width="1.51"/><path d="M137,108L112,135L147,128Z" fill="#332f2f" stroke="#332f2f" stroke-width="1.51"/><path d="M120,210L137,219L139,197Z" fill="#5b5753" stroke="#5b5753" stroke-width="1.51"/><path d="M110,165L119,192L140,163Z" fill="#3d4d56" stroke="#3d4d56" stroke-width="1.51"/><path d="M112,135L110,165L140,163Z" fill="#393f44" stroke="#393f44" stroke-width="1.51"/><path d="M140,37L110,51L142,60Z" fill="#4c3331" stroke="#4c3331" stroke-width="1.51"/><path d="M110,51L119,91L142,60Z" fill="#342e2c" stroke="#342e2c" stroke-width="1.51"/><path d="M112,18L140,37L144,19Z" fill="#6b3734" stroke="#6b3734" stroke-width="1.51"/><path d="M123,-15L112,18L139,-8Z" fill="#793532" stroke="#793532" stroke-width="1.51"/><path d="M137,248L119,275L142,264Z" fill="#6e5c3c" stroke="#6e5c3c" stroke-width="1.51"/><path d="M110,51L107,53L119,91Z" fill="#372e2d" stroke="#372e2d" stroke-width="1.51"/><path d="M105,114L112,135L137,108Z" fill="#312d2c" stroke="#312d2c" stroke-width="1.51"/><path d="M112,18L102,35L140,37Z" fill="#623430" stroke="#623430" stroke-width="1.51"/><path d="M102,35L110,51L140,37Z" fill="#55322f" stroke="#55322f" stroke-width="1.51"/><path d="M119,192L120,210L139,197Z" fill="#515656" stroke="#515656" stroke-width="1.51"/><path d="M102,250L119,275L137,248Z" fill="#6e5635" stroke="#6e5635" stroke-width="1.51"/><path d="M117,232L102,250L137,248Z" fill="#745130" stroke="#745130" stroke-width="1.51"/><path d="M120,210L117,232L137,219Z" fill="#635445" stroke="#635445" stroke-width="1.51"/><path d="M119,91L105,114L137,108Z" fill="#312d2c" stroke="#312d2c" stroke-width="1.51"/><path d="M98,145L110,165L112,135Z" fill="#373b3e" stroke="#373b3e" stroke-width="1.51"/><path d="M110,165L95,193L119,192Z" fill="#3f545f" stroke="#3f545f" stroke-width="1.51"/><path d="M107,53L90,61L119,91Z" fill="#332e2c" stroke="#332e2c" stroke-width="1.51"/><path d="M90,61L85,81L119,91Z" fill="#312d2c" stroke="#312d2c" stroke-width="1.51"/><path d="M94,219L117,232L120,210Z" fill="#635445" stroke="#635445" stroke-width="1.51"/><path d="M113,-37L88,1L123,-15Z" fill="#793532" stroke="#793532" stroke-width="1.51"/><path d="M88,1L95,9L123,-15Z" fill="#793532" stroke="#793532" stroke-width="1.51"/><path d="M95,9L112,18L123,-15Z" fill="#793532" stroke="#793532" stroke-width="1.51"/><path d="M90,177L95,193L110,165Z" fill="#3f515a" stroke="#3f515a" stroke-width="1.51"/><path d="M102,250L89,274L119,275Z" fill="#6a5a3a" stroke="#6a5a3a" stroke-width="1.51"/><path d="M119,192L95,193L120,210Z" fill="#4f5658" stroke="#4f5658" stroke-width="1.51"/><path d="M95,193L94,219L120,210Z" fill="#585550" stroke="#585550" stroke-width="1.51"/><path d="M102,288L117,282L119,275Z" fill="#606041" stroke="#606041" stroke-width="1.51"/><path d="M89,274L102,288L119,275Z" fill="#625f40" stroke="#625f40" stroke-width="1.51"/><path d="M89,111L105,114L119,91Z" fill="#312d2c" stroke="#312d2c" stroke-width="1.51"/><path d="M85,81L89,111L119,91Z" fill="#312d2c" stroke="#312d2c" stroke-width="1.51"/><path d="M94,-46L88,1L113,-37Z" fill="#793532" stroke="#793532" stroke-width="1.51"/><path d="M94,219L102,250L117,232Z" fill="#6e5239" stroke="#6e5239" stroke-width="1.51"/><path d="M105,114L98,145L112,135Z" fill="#322f2f" stroke="#322f2f" stroke-width="1.51"/><path d="M102,35L107,53L110,51Z" fill="#4e312f" stroke="#4e312f" stroke-width="1.51"/><path d="M95,9L102,35L112,18Z" fill="#6e3531" stroke="#6e3531" stroke-width="1.51"/><path d="M77,130L98,145L105,114Z" fill="#322e2d" stroke="#322e2d" stroke-width="1.51"/><path d="M89,111L77,130L105,114Z" fill="#312d2c" stroke="#312d2c" stroke-width="1.51"/><path d="M98,145L90,177L110,165Z" fill="#3b454b" stroke="#3b454b" stroke-width="1.51"/><path d="M60,-24L88,1L94,-46Z" fill="#793532" stroke="#793532" stroke-width="1.51"/><path d="M102,35L90,61L107,53Z" fill="#4a312e" stroke="#4a312e" stroke-width="1.51"/><path d="M94,219L63,229L102,250Z" fill="#6d523a" stroke="#6d523a" stroke-width="1.51"/><path d="M65,15L66,36L95,9Z" fill="#6e3531" stroke="#6e3531" stroke-width="1.51"/><path d="M69,160L90,177L98,145Z" fill="#3a4449" stroke="#3a4449" stroke-width="1.51"/><path d="M89,274L77,289L102,288Z" fill="#5f6142" stroke="#5f6142" stroke-width="1.51"/><path d="M73,264L89,274L102,250Z" fill="#6c5938" stroke="#6c5938" stroke-width="1.51"/><path d="M63,229L73,264L102,250Z" fill="#735231" stroke="#735231" stroke-width="1.51"/><path d="M95,9L66,36L102,35Z" fill="#663430" stroke="#663430" stroke-width="1.51"/><path d="M66,36L90,61L102,35Z" fill="#51322f" stroke="#51322f" stroke-width="1.51"/><path d="M65,196L94,219L95,193Z" fill="#545554" stroke="#545554" stroke-width="1.51"/><path d="M77,130L69,160L98,145Z" fill="#36393b" stroke="#36393b" stroke-width="1.51"/><path d="M85,81L63,100L89,111Z" fill="#312d2c" stroke="#312d2c" stroke-width="1.51"/><path d="M65,196L58,218L94,219Z" fill="#5c544d" stroke="#5c544d" stroke-width="1.51"/><path d="M90,177L65,196L95,193Z" fill="#435760" stroke="#435760" stroke-width="1.51"/><path d="M88,1L65,15L95,9Z" fill="#793532" stroke="#793532" stroke-width="1.51"/><path d="M58,218L63,229L94,219Z" fill="#655343" stroke="#655343" stroke-width="1.51"/><path d="M51,-47L60,-24L94,-46Z" fill="#7a3632" stroke="#7a3632" stroke-width="1.51"/><path d="M60,-24L61,0L88,1Z" fill="#793532" stroke="#793532" stroke-width="1.51"/><path d="M69,160L65,196L90,177Z" fill="#3e505a" stroke="#3e505a" stroke-width="1.51"/><path d="M56,58L85,81L90,61Z" fill="#352e2c" stroke="#352e2c" stroke-width="1.51"/><path d="M66,36L56,58L90,61Z" fill="#48302e" stroke="#48302e" stroke-width="1.51"/><path d="M73,264L77,289L89,274Z" fill="#645e3e" stroke="#645e3e" stroke-width="1.51"/><path d="M61,115L77,130L89,111Z" fill="#312d2c" stroke="#312d2c" stroke-width="1.51"/><path d="M63,100L61,115L89,111Z" fill="#312d2c" stroke="#312d2c" stroke-width="1.51"/><path d="M61,0L65,15L88,1Z" fill="#793532" stroke="#793532" stroke-width="1.51"/><path d="M56,58L63,100L85,81Z" fill="#332e2c" stroke="#332e2c" stroke-width="1.51"/><path d="M39,183L65,196L69,160Z" fill="#53555d" stroke="#53555d" stroke-width="1.51"/><path d="M63,229L46,243L73,264Z" fill="#805430" stroke="#805430" stroke-width="1.51"/><path d="M73,264L44,277L77,289Z" fill="#6b603f" stroke="#6b603f" stroke-width="1.51"/><path d="M44,277L46,288L77,289Z" fill="#726644" stroke="#726644" stroke-width="1.51"/><path d="M32,139L69,160L77,130Z" fill="#443a3a" stroke="#443a3a" stroke-width="1.51"/><path d="M61,115L32,139L77,130Z" fill="#42302e" stroke="#42302e" stroke-width="1.51"/><path d="M56,58L33,81L63,100Z" fill="#49312e" stroke="#49312e" stroke-width="1.51"/><path d="M39,168L39,183L69,160Z" fill="#5d5055" stroke="#5d5055" stroke-width="1.51"/><path d="M46,243L44,277L73,264Z" fill="#815c38" stroke="#815c38" stroke-width="1.51"/><path d="M49,41L56,58L66,36Z" fill="#5f3430" stroke="#5f3430" stroke-width="1.51"/><path d="M65,15L47,15L66,36Z" fill="#793532" stroke="#793532" stroke-width="1.51"/><path d="M32,139L39,168L69,160Z" fill="#5a4547" stroke="#5a4547" stroke-width="1.51"/><path d="M32,208L58,218L65,196Z" fill="#725952" stroke="#725952" stroke-width="1.51"/><path d="M61,0L47,15L65,15Z" fill="#883633" stroke="#883633" stroke-width="1.51"/><path d="M47,15L49,41L66,36Z" fill="#743531" stroke="#743531" stroke-width="1.51"/><path d="M60,-24L30,-11L61,0Z" fill="#913634" stroke="#913634" stroke-width="1.51"/><path d="M39,183L32,208L65,196Z" fill="#715c5d" stroke="#715c5d" stroke-width="1.51"/><path d="M58,218L46,243L63,229Z" fill="#7d563e" stroke="#7d563e" stroke-width="1.51"/><path d="M32,106L61,115L63,100Z" fill="#47302e" stroke="#47302e" stroke-width="1.51"/><path d="M33,81L32,106L63,100Z" fill="#53322f" stroke="#53322f" stroke-width="1.51"/><path d="M35,57L33,81L56,58Z" fill="#5a332f" stroke="#5a332f" stroke-width="1.51"/><path d="M32,106L32,139L61,115Z" fill="#54322f" stroke="#54322f" stroke-width="1.51"/><path d="M30,-11L47,15L61,0Z" fill="#963634" stroke="#963634" stroke-width="1.51"/><path d="M51,-47L30,-11L60,-24Z" fill="#953534" stroke="#953534" stroke-width="1.51"/><path d="M23,-46L30,-11L51,-47Z" fill="#a43535" stroke="#a43535" stroke-width="1.51"/><path d="M25,214L46,243L58,218Z" fill="#8b5943" stroke="#8b5943" stroke-width="1.51"/><path d="M32,208L25,214L58,218Z" fill="#885b4e" stroke="#885b4e" stroke-width="1.51"/><path d="M49,41L35,57L56,58Z" fill="#633430" stroke="#633430" stroke-width="1.51"/><path d="M20,119L32,139L32,106Z" fill="#653430" stroke="#653430" stroke-width="1.51"/><path d="M12,261L44,277L46,243Z" fill="#9c5f39" stroke="#9c5f39" stroke-width="1.51"/><path d="M47,15L3,39L49,41Z" fill="#8d3633" stroke="#8d3633" stroke-width="1.51"/><path d="M25,214L11,234L46,243Z" fill="#a35a3f" stroke="#a35a3f" stroke-width="1.51"/><path d="M13,6L3,39L47,15Z" fill="#aa3435" stroke="#aa3435" stroke-width="1.51"/><path d="M3,39L35,57L49,41Z" fill="#803633" stroke="#803633" stroke-width="1.51"/><path d="M25,64L33,81L35,57Z" fill="#643430" stroke="#643430" stroke-width="1.51"/><path d="M30,-11L13,6L47,15Z" fill="#aa3436" stroke="#aa3436" stroke-width="1.51"/><path d="M44,277L8,298L46,288Z" fill="#906d47" stroke="#906d47" stroke-width="1.51"/><path d="M11,234L12,261L46,243Z" fill="#b05933" stroke="#b05933" stroke-width="1.51"/><path d="M32,139L24,171L39,168Z" fill="#704b4c" stroke="#704b4c" stroke-width="1.51"/><path d="M12,261L1,279L44,277Z" fill="#aa6840" stroke="#aa6840" stroke-width="1.51"/><path d="M1,279L8,298L44,277Z" fill="#a66f47" stroke="#a66f47" stroke-width="1.51"/><path d="M23,-46L8,-15L30,-11Z" fill="#b63336" stroke="#b63336" stroke-width="1.51"/><path d="M11,147L24,171L32,139Z" fill="#794747" stroke="#794747" stroke-width="1.51"/><path d="M16,87L32,106L33,81Z" fill="#663430" stroke="#663430" stroke-width="1.51"/><path d="M3,189L32,208L39,183Z" fill="#8c6162" stroke="#8c6162" stroke-width="1.51"/><path d="M24,171L3,189L39,183Z" fill="#875e63" stroke="#875e63" stroke-width="1.51"/><path d="M24,171L39,183L39,168Z" fill="#73565a" stroke="#73565a" stroke-width="1.51"/><path d="M3,39L25,64L35,57Z" fill="#813532" stroke="#813532" stroke-width="1.51"/><path d="M3,189L25,214L32,208Z" fill="#9a6058" stroke="#9a6058" stroke-width="1.51"/><path d="M25,64L16,87L33,81Z" fill="#693431" stroke="#693431" stroke-width="1.51"/><path d="M1,-40L8,-15L23,-46Z" fill="#c23137" stroke="#c23137" stroke-width="1.51"/><path d="M3,189L-1,200L25,214Z" fill="#a4615c" stroke="#a4615c" stroke-width="1.51"/><path d="M-1,200L1,208L25,214Z" fill="#a96056" stroke="#a96056" stroke-width="1.51"/><path d="M20,119L11,147L32,139Z" fill="#713a37" stroke="#713a37" stroke-width="1.51"/><path d="M16,87L20,119L32,106Z" fill="#6b3531" stroke="#6b3531" stroke-width="1.51"/><path d="M8,-15L13,6L30,-11Z" fill="#bb3237" stroke="#bb3237" stroke-width="1.51"/><path d="M-4,16L3,39L13,6Z" fill="#b63336" stroke="#b63336" stroke-width="1.51"/><path d="M2,141L11,147L20,119Z" fill="#7e3c39" stroke="#7e3c39" stroke-width="1.51"/><path d="M16,87L1,118L20,119Z" fill="#783532" stroke="#783532" stroke-width="1.51"/><path d="M11,147L-5,160L24,171Z" fill="#8b4e4f" stroke="#8b4e4f" stroke-width="1.51"/><path d="M1,208L11,234L25,214Z" fill="#af5e4c" stroke="#af5e4c" stroke-width="1.51"/><path d="M-19,58L16,87L25,64Z" fill="#793532" stroke="#793532" stroke-width="1.51"/><path d="M3,39L-19,58L25,64Z" fill="#8d3633" stroke="#8d3633" stroke-width="1.51"/><path d="M-19,58L-9,90L16,87Z" fill="#793532" stroke="#793532" stroke-width="1.51"/><path d="M1,118L2,141L20,119Z" fill="#793532" stroke="#793532" stroke-width="1.51"/><path d="M-5,160L3,189L24,171Z" fill="#92595c" stroke="#92595c" stroke-width="1.51"/><path d="M1,-40L-2,-20L8,-15Z" fill="#c23137" stroke="#c23137" stroke-width="1.51"/><path d="M-9,90L1,118L16,87Z" fill="#793532" stroke="#793532" stroke-width="1.51"/><path d="M1,208L-6,230L11,234Z" fill="#b45e47" stroke="#b45e47" stroke-width="1.51"/><path d="M11,234L-6,230L12,261Z" fill="#be5a36" stroke="#be5a36" stroke-width="1.51"/><path d="M-2,-20L-4,16L8,-15Z" fill="#c23137" stroke="#c23137" stroke-width="1.51"/><path d="M-6,230L-22,273L12,261Z" fill="#bc6038" stroke="#bc6038" stroke-width="1.51"/><path d="M8,-15L-4,16L13,6Z" fill="#c23137" stroke="#c23137" stroke-width="1.51"/><path d="M2,141L-5,160L11,147Z" fill="#854645" stroke="#854645" stroke-width="1.51"/><path d="M-22,273L1,279L12,261Z" fill="#b56840" stroke="#b56840" stroke-width="1.51"/><path d="M-25,-16L-4,16L-2,-20Z" fill="#c23137" stroke="#c23137" stroke-width="1.51"/><path d="M-5,160L-24,177L3,189Z" fill="#935b5e" stroke="#935b5e" stroke-width="1.51"/><path d="M1,279L-28,295L8,298Z" fill="#ab724a" stroke="#ab724a" stroke-width="1.51"/><path d="M-22,273L-28,295L1,279Z" fill="#b06f46" stroke="#b06f46" stroke-width="1.51"/><path d="M-28,214L-6,230L1,208Z" fill="#af5f4d" stroke="#af5f4d" stroke-width="1.51"/><path d="M-9,90L-34,117L1,118Z" fill="#793532" stroke="#793532" stroke-width="1.51"/><path d="M1,118L-32,129L2,141Z" fill="#7a3633" stroke="#7a3633" stroke-width="1.51"/><path d="M-24,177L-1,200L3,189Z" fill="#9b6467" stroke="#9b6467" stroke-width="1.51"/><path d="M-4,16L-21,30L3,39Z" fill="#ac3436" stroke="#ac3436" stroke-width="1.51"/><path d="M-21,30L-19,58L3,39Z" fill="#9b3534" stroke="#9b3534" stroke-width="1.51"/><path d="M-25,-16L-2,-20L1,-40Z" fill="#c23137" stroke="#c23137" stroke-width="1.51"/><path d="M-32,129L-5,160L2,141Z" fill="#824140" stroke="#824140" stroke-width="1.51"/><path d="M-19,58L-31,79L-9,90Z" fill="#793532" stroke="#793532" stroke-width="1.51"/><path d="M-39,228L-22,273L-6,230Z" fill="#bf5933" stroke="#bf5933" stroke-width="1.51"/><path d="M-1,200L-28,214L1,208Z" fill="#a96056" stroke="#a96056" stroke-width="1.51"/><path d="M-34,117L-32,129L1,118Z" fill="#793532" stroke="#793532" stroke-width="1.51"/><path d="M-45,-26L-25,-16L1,-40Z" fill="#c23137" stroke="#c23137" stroke-width="1.51"/><path d="M-24,177L-28,214L-1,200Z" fill="#a1625f" stroke="#a1625f" stroke-width="1.51"/><path d="M-39,228L-39,270L-22,273Z" fill="#bb6139" stroke="#bb6139" stroke-width="1.51"/><path d="M-32,129L-24,177L-5,160Z" fill="#894b4b" stroke="#894b4b" stroke-width="1.51"/><path d="M-37,26L-21,30L-4,16Z" fill="#b23336" stroke="#b23336" stroke-width="1.51"/><path d="M-25,-16L-37,26L-4,16Z" fill="#c23137" stroke="#c23137" stroke-width="1.51"/><path d="M-28,214L-39,228L-6,230Z" fill="#b45e47" stroke="#b45e47" stroke-width="1.51"/><path d="M-31,79L-34,117L-9,90Z" fill="#793532" stroke="#793532" stroke-width="1.51"/><path d="M-46,190L-28,214L-24,177Z" fill="#9f6362" stroke="#9f6362" stroke-width="1.51"/><path d="M-32,129L-46,190L-24,177Z" fill="#8e5354" stroke="#8e5354" stroke-width="1.51"/><path d="M-39,270L-28,295L-22,273Z" fill="#b16d44" stroke="#b16d44" stroke-width="1.51"/><path d="M-37,26L-37,51L-21,30Z" fill="#a33535" stroke="#a33535" stroke-width="1.51"/><path d="M-36,69L-31,79L-19,58Z" fill="#7a3532" stroke="#7a3532" stroke-width="1.51"/><path d="M-21,30L-37,51L-19,58Z" fill="#963534" stroke="#963534" stroke-width="1.51"/><path d="M-37,51L-36,69L-19,58Z" fill="#863633" stroke="#863633" stroke-width="1.51"/><path d="M-45,-26L-37,26L-25,-16Z" fill="#c23137" stroke="#c23137" stroke-width="1.51"/><path d="M-46,190L-39,228L-28,214Z" fill="#ab6053" stroke="#ab6053" stroke-width="1.51"/><path d="M-36,69L-34,117L-31,79Z" fill="#793532" stroke="#793532" stroke-width="1.51"/><path d="M-34,117L-46,190L-32,129Z" fill="#834341" stroke="#834341" stroke-width="1.51"/><path d="M-36,69L-46,190L-34,117Z" fill="#793532" stroke="#793532" stroke-width="1.51"/><path d="M-37,51L-46,190L-36,69Z" fill="#793532" stroke="#793532" stroke-width="1.51"/><path d="M-45,-26L-46,190L-37,51Z" fill="#793532" stroke="#793532" stroke-width="1.51"/><path d="M-45,-26L-37,51L-37,26Z" fill="#bb3237" stroke="#bb3237" stroke-width="1.51"/><path d="M-46,190L-39,270L-39,228Z" fill="#b75d42" stroke="#b75d42" stroke-width="1.51"/></svg>